<?xml version="1.0" standalone="no"?>
<!DOCTYPE svg PUBLIC "-//W3C//DTD SVG 20010904//EN"
 "http://www.w3.org/TR/2001/REC-SVG-20010904/DTD/svg10.dtd">
<svg version="1.0" xmlns="http://www.w3.org/2000/svg"
 width="512.000000pt" height="512.000000pt" viewBox="0 0 512.000000 512.000000"
 preserveAspectRatio="xMidYMid meet">
<metadata>
Created by potrace 1.11, written by Peter Selinger 2001-2013
</metadata>
<g transform="translate(0.000000,512.000000) scale(0.100000,-0.100000)"
fill="#000000" stroke="none">
<path d="M2332 5110 c-209 -21 -463 -77 -647 -145 -252 -93 -561 -272 -765
-443 -114 -95 -272 -257 -360 -367 -158 -199 -322 -492 -408 -730 -116 -321
-168 -693 -144 -1028 25 -360 102 -645 257 -962 339 -693 982 -1202 1728
-1369 211 -48 317 -59 557 -60 228 -1 324 8 512 45 665 132 1265 539 1641
1114 305 467 454 1045 408 1588 -29 346 -106 627 -256 932 -251 512 -660 921
-1170 1170 -251 123 -484 196 -747 236 -154 23 -464 32 -606 19z m156 -548
c30 -52 110 -52 143 1 17 28 19 52 19 207 l0 176 108 -8 c104 -8 319 -42 329
-52 3 -3 -4 -40 -16 -84 -11 -43 -21 -91 -21 -106 0 -39 41 -76 83 -76 54 0
74 25 101 123 14 49 27 91 30 95 8 7 192 -62 314 -119 l102 -48 -45 -76 c-53
-91 -61 -115 -44 -147 18 -34 40 -47 80 -48 43 0 62 18 115 110 20 36 38 67
40 68 7 9 201 -133 324 -237 l35 -29 -67 -70 c-37 -38 -70 -80 -73 -95 -14
-56 46 -116 102 -102 15 3 57 36 94 72 l69 66 42 -48 c84 -95 235 -302 226
-309 -1 -2 -32 -20 -68 -40 -90 -52 -110 -73 -110 -113 0 -48 14 -70 55 -83
34 -11 41 -9 126 39 l91 50 48 -102 c52 -112 124 -306 117 -314 -3 -2 -45 -15
-94 -29 -98 -27 -123 -47 -123 -101 0 -42 37 -83 76 -83 15 0 63 10 106 21 44
12 81 19 84 16 10 -10 44 -225 52 -329 l8 -108 -176 0 c-155 0 -179 -2 -207
-19 -59 -36 -52 -120 12 -146 25 -11 78 -15 202 -15 l169 0 -8 -107 c-8 -105
-42 -320 -52 -330 -3 -3 -40 4 -84 16 -43 11 -91 21 -106 21 -39 0 -76 -41
-76 -83 0 -54 25 -74 123 -101 49 -14 91 -27 94 -29 7 -8 -65 -202 -118 -314
l-48 -103 -75 45 c-93 55 -116 61 -154 41 -33 -17 -42 -33 -42 -80 0 -39 21
-60 110 -112 36 -20 67 -38 68 -40 9 -7 -142 -214 -226 -309 l-42 -48 -69 66
c-37 36 -79 69 -94 72 -56 14 -116 -46 -102 -102 3 -15 36 -57 73 -96 l67 -69
-30 -25 c-146 -121 -322 -250 -329 -241 -2 1 -20 32 -40 68 -54 93 -72 110
-118 110 -43 0 -74 -24 -84 -65 -5 -19 6 -47 44 -116 l51 -91 -102 -47 c-118
-56 -305 -127 -312 -119 -3 3 -17 45 -30 94 -27 99 -47 124 -102 124 -42 0
-83 -37 -83 -76 0 -15 10 -63 21 -106 12 -44 19 -81 16 -84 -10 -10 -225 -44
-329 -52 l-108 -8 0 174 c0 137 -3 179 -15 203 -31 59 -111 62 -146 6 -17 -28
-19 -52 -19 -207 l0 -176 -107 8 c-105 8 -320 42 -330 52 -3 3 4 40 16 84 11
43 21 91 21 106 0 39 -41 76 -83 76 -54 0 -74 -25 -101 -123 -14 -49 -27 -91
-29 -93 -7 -8 -205 65 -312 115 l-105 50 45 76 c55 94 61 115 41 153 -17 33
-33 42 -80 42 -39 0 -57 -19 -111 -110 -21 -36 -39 -66 -41 -68 -7 -10 -212
140 -309 226 l-48 42 66 69 c36 37 69 79 72 94 14 56 -46 116 -102 102 -15 -3
-57 -36 -94 -72 l-69 -66 -42 48 c-84 95 -235 302 -226 309 1 2 32 20 68 40
89 52 110 73 110 112 0 47 -9 63 -42 80 -38 20 -59 14 -153 -41 l-76 -45 -48
102 c-56 119 -127 306 -119 313 3 3 45 17 94 30 99 27 124 47 124 102 0 42
-37 83 -76 83 -15 0 -63 -10 -106 -21 -44 -12 -81 -19 -84 -16 -10 10 -44 225
-52 330 l-8 107 174 0 c137 0 179 3 203 15 59 31 62 111 6 146 -28 17 -52 19
-207 19 l-176 0 8 108 c8 104 42 319 52 329 3 3 40 -4 84 -16 43 -11 91 -21
106 -21 39 0 76 41 76 83 0 55 -25 75 -124 102 -49 13 -91 27 -94 30 -8 7 63
194 119 313 l48 102 73 -43 c96 -57 105 -60 145 -46 39 12 53 34 53 82 0 40
-20 61 -110 113 -36 20 -66 38 -68 39 -10 8 139 213 226 310 l42 48 69 -66
c37 -36 79 -69 94 -72 56 -14 116 46 102 102 -3 15 -36 57 -72 94 l-66 69 48
42 c97 87 302 236 310 226 1 -2 19 -32 39 -68 53 -92 72 -110 115 -110 40 1
62 14 80 48 17 32 9 56 -44 147 l-45 76 95 45 c137 64 313 129 323 120 2 -2
14 -44 28 -93 27 -98 47 -123 101 -123 42 0 83 37 83 76 0 15 -10 63 -21 106
-12 44 -19 81 -16 84 10 10 225 44 327 52 l105 7 5 -180 c3 -122 9 -187 18
-203z"/>
<path d="M2521 4086 c-51 -28 -50 -21 -51 -627 l0 -566 -65 -32 c-70 -35 -120
-86 -157 -160 -19 -38 -23 -62 -23 -141 0 -113 21 -168 95 -240 74 -74 128
-95 240 -95 79 0 103 4 141 23 74 37 125 87 160 157 l32 65 309 0 c341 0 356
3 376 60 8 21 8 39 0 60 -20 57 -35 60 -377 60 l-310 0 -25 55 c-30 67 -96
132 -164 164 l-52 24 0 564 c0 612 1 606 -55 631 -32 15 -44 15 -74 -2z m102
-1370 c44 -18 95 -78 103 -121 11 -60 -4 -106 -50 -151 -72 -72 -160 -72 -232
0 -67 67 -72 154 -11 223 53 60 122 78 190 49z"/>
<path d="M2432 2035 c-104 -23 -207 -80 -288 -160 -126 -125 -177 -245 -178
-420 -1 -122 20 -205 75 -301 110 -193 352 -322 566 -300 245 25 445 183 520
411 21 65 26 99 27 185 1 174 -53 301 -178 425 -145 144 -346 203 -544 160z"/>
</g>
</svg>
