<?xml version="1.0" standalone="no"?>
<!DOCTYPE svg PUBLIC "-//W3C//DTD SVG 20010904//EN"
 "http://www.w3.org/TR/2001/REC-SVG-20010904/DTD/svg10.dtd">
<svg version="1.0" xmlns="http://www.w3.org/2000/svg"
 width="512.000000pt" height="512.000000pt" viewBox="0 0 512.000000 512.000000"
 preserveAspectRatio="xMidYMid meet">
<metadata>
Created by potrace 1.11, written by Peter Selinger 2001-2013
</metadata>
<g transform="translate(0.000000,512.000000) scale(0.100000,-0.100000)"
fill="#000000" stroke="none">
<path d="M4078 5025 c-20 -7 -47 -20 -60 -29 -30 -20 -68 -93 -68 -132 0 -54
45 -126 122 -200 86 -81 116 -128 152 -234 23 -72 27 -89 44 -190 4 -25 7
-112 7 -195 l0 -150 -42 -41 c-56 -56 -89 -110 -118 -198 -26 -78 -33 -185
-16 -257 7 -33 3 -45 -47 -129 l-55 -93 -41 84 c-40 82 -118 209 -147 239 -8
9 -38 44 -68 79 -71 82 -136 143 -225 209 -39 29 -79 60 -89 68 -9 8 -20 14
-23 14 -3 0 -26 14 -51 30 -24 17 -45 30 -47 30 -2 0 -36 18 -77 41 -176 96
-486 201 -664 225 -27 3 -52 8 -55 9 -11 7 -198 19 -290 19 -312 0 -651 -67
-933 -186 -339 -142 -392 -158 -547 -164 -118 -4 -164 5 -312 62 -131 52 -207
43 -243 -26 -28 -54 -20 -104 29 -179 106 -164 331 -345 551 -443 139 -62 237
-92 392 -118 111 -18 118 -19 288 -25 365 -13 412 -15 460 -29 58 -15 130 -45
124 -50 -2 -2 -33 -6 -69 -10 -36 -3 -76 -8 -90 -11 -13 -2 -42 -7 -65 -11
-205 -30 -339 -88 -438 -190 -26 -26 -47 -51 -47 -55 0 -4 -6 -14 -13 -21 -13
-14 -41 -76 -53 -117 -14 -50 -6 -166 16 -231 40 -122 126 -235 205 -271 88
-41 189 -11 232 67 27 49 29 62 19 177 -9 101 -2 117 50 117 91 0 468 -113
480 -144 5 -13 -40 -110 -68 -146 -78 -101 -182 -186 -393 -320 -179 -114
-310 -221 -385 -317 -18 -23 -22 -24 -82 -14 -126 19 -237 54 -299 96 -82 54
-137 164 -124 250 12 79 26 111 105 245 68 116 92 190 95 296 5 180 -68 390
-178 508 -31 34 -87 43 -125 21 -43 -26 -61 -73 -77 -201 -20 -160 -30 -175
-165 -243 -216 -109 -364 -331 -427 -639 -18 -90 -26 -381 -12 -462 39 -235
84 -355 205 -553 54 -86 54 -87 27 -81 -56 14 -128 70 -195 152 -39 47 -84 53
-126 17 -26 -22 -32 -33 -29 -59 4 -37 9 -46 51 -99 l30 -38 0 -303 1 -302 25
-37 c13 -20 43 -46 65 -59 l40 -22 2330 -1 c1814 -1 2340 2 2374 11 51 15 83
43 107 93 15 31 17 74 18 336 l1 300 33 41 c18 22 34 56 37 74 3 29 -1 39 -34
69 l-39 36 -1 145 c0 80 -3 180 -6 223 -5 70 -4 77 13 77 17 0 61 33 63 48 8
41 0 73 -38 172 -82 208 -212 434 -332 578 -29 35 -51 69 -48 76 3 7 27 46 53
87 71 107 168 308 214 439 12 36 26 72 31 81 4 9 10 27 13 40 3 13 14 56 25
94 25 83 50 202 57 265 3 25 8 52 10 60 17 50 24 394 11 535 -19 205 -62 369
-142 541 -138 297 -364 490 -643 549 -80 16 -196 16 -244 0z m-419 -4092 c71
-142 70 -140 19 -148 -60 -11 -138 -13 -143 -5 -6 9 63 250 72 250 1 0 25 -44
52 -97z"/>
</g>
</svg>
